<?xml version="1.0" encoding="UTF-8" standalone="no"?>
<svg
   xmlns:dc="http://purl.org/dc/elements/1.1/"
   xmlns:cc="http://creativecommons.org/ns#"
   xmlns:rdf="http://www.w3.org/1999/02/22-rdf-syntax-ns#"
   xmlns:svg="http://www.w3.org/2000/svg"
   xmlns="http://www.w3.org/2000/svg"
   xmlns:xlink="http://www.w3.org/1999/xlink"
   id="svg8"
   version="1.1"
   viewBox="0 0 70.104698 70.104698"
   height="70.104698mm"
   width="70.104698mm">
  <defs
     id="defs2">
    <linearGradient
       gradientUnits="userSpaceOnUse"
       y2="379.57898"
       x2="-87.59935"
       y1="328.51511"
       x1="-107.11662"
       id="linearGradient5209"
       xlink:href="#linearGradient2533"
       gradientTransform="translate(201.85503,-224.6243)" />
    <linearGradient
       id="linearGradient2533">
      <stop
         id="stop2529"
         offset="0"
         style="stop-color:#6b0513;stop-opacity:1;" />
      <stop
         id="stop2531"
         offset="1"
         style="stop-color:#6b0513;stop-opacity:0;" />
    </linearGradient>
  </defs>
  <metadata
     id="metadata5">
    <rdf:RDF>
      <cc:Work
         rdf:about="">
        <dc:format>image/svg+xml</dc:format>
        <dc:type
           rdf:resource="http://purl.org/dc/dcmitype/StillImage" />
        <dc:title></dc:title>
      </cc:Work>
    </rdf:RDF>
  </metadata>
  <g
     transform="translate(-69.458061,-100.92979)"
     id="layer1">
    <path
       id="path5175"
       d="m 93.855463,170.35965 c -3.1194,-1.63039 -6.03373,-3.7107 -8.44058,-6.02515 l -1.07004,-1.02896 0.28612,-1.4174 c 0.4926,-2.44038 0.52817,-2.87687 0.52747,-6.47285 -5.3e-4,-2.579 -0.0432,-3.8133 -0.18478,-5.33892 -0.22258,-2.39868 -0.25748,-6.68149 -0.0658,-8.07923 0.81488,-5.94328 2.72958,-10.90171 6.01834,-15.58551 1.90982,-2.71994 5.29941,-6.11935 8.07923,-8.10264 3.168607,-2.26067 6.809037,-3.96445 10.961317,-5.13008 0.59767,-0.16778 1.12364,-0.33985 1.16884,-0.38238 0.17891,-0.1684 -5.35412,0.10002 -6.95293,0.3373 -6.102807,0.90575 -12.032697,3.6164 -16.658257,7.61477 -1.03862,0.8978 -2.98391,2.8597 -3.90202,3.93535 -3.68886,4.32185 -6.35786,10.14345 -7.29311,15.90768 -0.24514,1.51089 -0.37615,3.71952 -0.38886,6.55543 l -0.0102,2.26785 -0.23397,-0.70871 c -0.64831,-1.96368 -1.24618,-4.88323 -1.49429,-7.29697 -0.16652,-1.62006 -0.18949,-5.27345 -0.0432,-6.87713 0.56676,-6.21436 2.69054,-12.17792 6.17491,-17.33909 2.6589,-3.93847 6.16822,-7.41267 10.11846,-10.0172 4.95565,-3.26745 10.174427,-5.164 16.301807,-5.92425 1.31743,-0.16346 6.80299,-0.16326 8.03201,2.7e-4 3.68526,0.4904 6.87743,1.31097 9.86661,2.53629 1.01082,0.41435 3.6642,1.70371 4.2735,2.07663 l 0.29675,0.18161 -0.60572,0.70659 c -4.2384,4.94425 -6.71467,10.17691 -7.84697,16.58159 -0.26452,1.49622 -0.26724,1.55112 -0.26223,5.29167 0.004,2.76601 0.0479,4.24679 0.16493,5.52108 0.35623,3.88013 0.30824,6.41891 -0.17766,9.39911 -0.96325,5.9082 -3.66766,11.77875 -7.46587,16.20645 -1.28657,1.49981 -4.19119,4.29392 -5.4249,5.21853 -3.81946,2.86245 -7.09444,4.44691 -12.378717,5.9889 -0.078,0.0227 -0.69453,-0.24755 -1.37016,-0.60066 z"
       style="opacity:1;fill:#a3172a;fill-opacity:1;stroke:none;stroke-width:0.08821429;stroke-miterlimit:4;stroke-dasharray:none;stroke-opacity:1" />
    <path
       style="opacity:1;fill:url(#linearGradient5209);fill-opacity:1;stroke:none;stroke-width:0.08821429;stroke-miterlimit:4;stroke-dasharray:none;stroke-opacity:1"
       d="m 93.855463,170.35965 c -3.1194,-1.63039 -6.03373,-3.7107 -8.44058,-6.02515 l -1.07004,-1.02896 0.28612,-1.4174 c 0.4926,-2.44038 0.52817,-2.87687 0.52747,-6.47285 -5.3e-4,-2.579 -0.0432,-3.8133 -0.18478,-5.33892 -0.22258,-2.39868 -0.25748,-6.68149 -0.0658,-8.07923 0.81488,-5.94328 2.72958,-10.90171 6.01834,-15.58551 1.90982,-2.71994 5.29941,-6.11935 8.07923,-8.10264 3.168607,-2.26067 6.809037,-3.96445 10.961317,-5.13008 0.59767,-0.16778 1.12364,-0.33985 1.16884,-0.38238 0.17891,-0.1684 -5.35412,0.10002 -6.95293,0.3373 -6.102807,0.90575 -12.032697,3.6164 -16.658257,7.61477 -1.03862,0.8978 -2.98391,2.8597 -3.90202,3.93535 -3.68886,4.32185 -6.35786,10.14345 -7.29311,15.90768 -0.24514,1.51089 -0.37615,3.71952 -0.38886,6.55543 l -0.0102,2.26785 -0.23397,-0.70871 c -0.64831,-1.96368 -1.24618,-4.88323 -1.49429,-7.29697 -0.16652,-1.62006 -0.18949,-5.27345 -0.0432,-6.87713 0.56676,-6.21436 2.69054,-12.17792 6.17491,-17.33909 2.6589,-3.93847 6.16822,-7.41267 10.11846,-10.0172 4.95565,-3.26745 10.174427,-5.164 16.301807,-5.92425 1.31743,-0.16346 6.80299,-0.16326 8.03201,2.7e-4 3.68526,0.4904 6.87743,1.31097 9.86661,2.53629 1.01082,0.41435 3.6642,1.70371 4.2735,2.07663 l 0.29675,0.18161 -0.60572,0.70659 c -4.2384,4.94425 -6.71467,10.17691 -7.84697,16.58159 -0.26452,1.49622 -0.26724,1.55112 -0.26223,5.29167 0.004,2.76601 0.0479,4.24679 0.16493,5.52108 0.35623,3.88013 0.30824,6.41891 -0.17766,9.39911 -0.96325,5.9082 -3.66766,11.77875 -7.46587,16.20645 -1.28657,1.49981 -4.19119,4.29392 -5.4249,5.21853 -3.81946,2.86245 -7.09444,4.44691 -12.378717,5.9889 -0.078,0.0227 -0.69453,-0.24755 -1.37016,-0.60066 z"
       id="path5211" />
  </g>
</svg>
